<svg xmlns="http://www.w3.org/2000/svg" width="82" height="35" viewBox="0 0 82 35">
  <g id="Group_15" data-name="Group 15" transform="translate(1727 2312)">
    <g id="Group_12" data-name="Group 12" transform="translate(-355 35)">
      <path id="Union_17" data-name="Union 17" d="M0,31V0H20V8H9v5h9v8H9V31Z" transform="translate(-1372 -2343)" fill="#ff4838"/>
      <path id="Rectangle_223" data-name="Rectangle 223" d="M0,0H4A0,0,0,0,1,4,0V0A4,4,0,0,1,0,4H0A0,0,0,0,1,0,4V0A0,0,0,0,1,0,0Z" transform="translate(-1352 -2339)" fill="#ff4838"/>
      <path id="Rectangle_224" data-name="Rectangle 224" d="M0,0H4A0,0,0,0,1,4,0V0A4,4,0,0,1,0,4H0A0,0,0,0,1,0,4V0A0,0,0,0,1,0,0Z" transform="translate(-1354 -2326)" fill="#ff4838"/>
      <path id="Rectangle_225" data-name="Rectangle 225" d="M0,0H4A0,0,0,0,1,4,0V0A4,4,0,0,1,0,4H0A0,0,0,0,1,0,4V0A0,0,0,0,1,0,0Z" transform="translate(-1363 -2316)" fill="#ff4838"/>
      <path id="Rectangle_226" data-name="Rectangle 226" d="M4,0H4A0,0,0,0,1,4,0V4A0,0,0,0,1,4,4H0A0,0,0,0,1,0,4V4A4,4,0,0,1,4,0Z" transform="translate(-1372 -2347)" fill="#ff4838"/>
    </g>
    <g id="Group_13" data-name="Group 13" transform="translate(-355 35)">
      <path id="Rectangle_228" data-name="Rectangle 228" d="M0,0H4A0,0,0,0,1,4,0V0A4,4,0,0,1,0,4H0A0,0,0,0,1,0,4V0A0,0,0,0,1,0,0Z" transform="translate(-1337 -2316)" fill="#ff4838"/>
      <path id="Union_19" data-name="Union 19" d="M0,31V0H23V16a5,5,0,0,1-5,5H9V31ZM16,13V9H9v4Z" transform="translate(-1346 -2343)" fill="#ff4838"/>
      <path id="Rectangle_227" data-name="Rectangle 227" d="M4,0H4A0,0,0,0,1,4,0V4A0,0,0,0,1,4,4H0A0,0,0,0,1,0,4V4A4,4,0,0,1,4,0Z" transform="translate(-1346 -2347)" fill="#ff4838"/>
      <path id="Path_19" data-name="Path 19" d="M4,0V4H-2.341Z" transform="translate(-1327 -2326)" fill="#ff4838"/>
      <path id="Path_20" data-name="Path 20" d="M-.87-.933,4,0A4,4,0,0,1,0,4Z" transform="translate(-1323 -2326)" fill="#ff4838"/>
      <path id="Path_21" data-name="Path 21" d="M4-1.708V4H-4.38Z" transform="translate(-1323 -2330)" fill="#ff4838"/>
    </g>
    <g id="Union_27" data-name="Union 27" transform="translate(-1697 -2312)" fill="#fff">
      <path d="M 8.5 30.49960136413574 L 0.5000002980232239 30.49960136413574 L 0.5000002980232239 20.99970054626465 L 0.5000002980232239 12.99960041046143 L 0.5000002980232239 8.000101089477539 L 0.5000002980232239 0.5000006556510925 L 19.99979972839355 0.5000006556510925 L 22.50040054321289 0.5000006556510925 L 22.50040054321289 12.99960041046143 L 22.50040054321289 16.00020027160645 C 22.50040054321289 18.48122978210449 20.48153114318848 20.49970054626465 18 20.49970054626465 L 17.00010108947754 20.49970054626465 L 9 20.49970054626465 L 8.5 20.49970054626465 L 8.5 20.99970054626465 L 8.5 30.49960136413574 Z M 8.5 7.500100612640381 L 8.5 8.000101089477539 L 8.5 12.99960041046143 L 8.5 13.49960041046143 L 9 13.49960041046143 L 16.00020027160645 13.49960041046143 L 16.50020027160645 13.49960041046143 L 16.50020027160645 12.99960041046143 L 16.50020027160645 8.000101089477539 L 16.50020027160645 7.500100612640381 L 16.00020027160645 7.500100612640381 L 9 7.500100612640381 L 8.5 7.500100612640381 Z" stroke="none"/>
      <path d="M 8 29.99960136413574 L 8 19.99970054626465 L 18 19.99970054626465 C 20.20582962036133 19.99970054626465 22.00040054321289 18.20553016662598 22.00040054321289 16.00020027160645 L 22.00040054321289 1.000000715255737 L 1.000000238418579 1.000000715255737 L 1.000000238418579 29.99960136413574 L 8 29.99960136413574 M 8 7.000100612640381 L 17.00020027160645 7.000100612640381 L 17.00020027160645 13.99960041046143 L 8 13.99960041046143 L 8 7.000100612640381 M 9 30.99960136413574 L 2.716064386731887e-07 30.99960136413574 L 2.716064386731887e-07 6.820678777330613e-07 L 23.00040054321289 6.820678777330613e-07 L 23.00040054321289 16.00020027160645 C 23.00040054321289 18.76140022277832 20.76119995117188 20.99970054626465 18 20.99970054626465 L 9 20.99970054626465 L 9 30.99960136413574 Z M 9 8.000101089477539 L 9 12.99960041046143 L 16.00020027160645 12.99960041046143 L 16.00020027160645 8.000101089477539 L 9 8.000101089477539 Z" stroke="none" fill="#e64b37"/>
    </g>
    <g id="Group_14" data-name="Group 14" transform="translate(-355 35)">
      <path id="Union_21" data-name="Union 21" d="M12,31H0V0H9V23h3V15H23V31Z" transform="translate(-1317 -2343)" fill="#ff4838"/>
      <path id="Rectangle_240" data-name="Rectangle 240" d="M4,0H4A0,0,0,0,1,4,0V4A0,0,0,0,1,4,4H0A0,0,0,0,1,0,4V4A4,4,0,0,1,4,0Z" transform="translate(-1317 -2347)" fill="#ff4838"/>
      <path id="Rectangle_241" data-name="Rectangle 241" d="M0,0H4A0,0,0,0,1,4,0V0A4,4,0,0,1,0,4H0A0,0,0,0,1,0,4V0A0,0,0,0,1,0,0Z" transform="translate(-1294 -2316)" fill="#ff4838"/>
      <path id="Path_22" data-name="Path 22" d="M6.007,0V4H0Z" transform="translate(-1304 -2332)" fill="#ff4838"/>
    </g>
    <g id="Union_28" data-name="Union 28" transform="translate(-1668 -2312)" fill="#fff">
      <path d="M 22.50040054321289 30.49960136413574 L 15.00030040740967 30.49960136413574 L 9 30.49960136413574 L 0.5000002980232239 30.49960136413574 L 0.5000002980232239 23.00040054321289 L 0.5000002980232239 0.5000006556510925 L 8.5 0.5000006556510925 L 8.5 23.00040054321289 L 8.5 23.50040054321289 L 9 23.50040054321289 L 15.00030040740967 23.50040054321289 L 15.50030040740967 23.50040054321289 L 15.50030040740967 23.00040054321289 L 15.50030040740967 15.50030040740967 L 22.50040054321289 15.50030040740967 L 22.50040054321289 30.49960136413574 Z" stroke="none"/>
      <path d="M 22.00040054321289 29.99960136413574 L 22.00040054321289 16.00030136108398 L 16.00029945373535 16.00030136108398 L 16.00029945373535 24.00040054321289 L 8 24.00040054321289 L 8 1.000000715255737 L 1.000000238418579 1.000000715255737 L 1.000000238418579 29.99960136413574 L 22.00040054321289 29.99960136413574 M 23.00040054321289 30.99960136413574 L 2.716064386731887e-07 30.99960136413574 L 2.716064386731887e-07 6.820678777330613e-07 L 9 6.820678777330613e-07 L 9 23.00040054321289 L 15.00030040740967 23.00040054321289 L 15.00030040740967 15.00030040740967 L 23.00040054321289 15.00030040740967 L 23.00040054321289 30.99960136413574 Z" stroke="none" fill="#e64b37"/>
    </g>
    <g id="Union_26" data-name="Union 26" transform="translate(-1723 -2312)" fill="#fff">
      <path d="M 8.5 30.49960136413574 L 0.4999998509883881 30.49960136413574 L 0.4999998509883881 20.99970054626465 L 0.4999998509883881 12.99960041046143 L 0.4999998509883881 8.000101089477539 L 0.4999998509883881 0.5000006556510925 L 19.49979972839355 0.5000006556510925 L 19.49979972839355 7.500100612640381 L 9 7.500100612640381 L 8.5 7.500100612640381 L 8.5 8.000101089477539 L 8.5 12.99960041046143 L 8.5 13.49960041046143 L 9 13.49960041046143 L 17.5 13.49960041046143 L 17.5 20.49970054626465 L 9 20.49970054626465 L 8.5 20.49970054626465 L 8.5 20.99970054626465 L 8.5 30.49960136413574 Z" stroke="none"/>
      <path d="M 8 29.99960136413574 L 8 19.99970054626465 L 17 19.99970054626465 L 17 13.99960041046143 L 8 13.99960041046143 L 8 7.000100612640381 L 18.99979972839355 7.000100612640381 L 18.99979972839355 1.000000715255737 L 0.9999998807907104 1.000000715255737 L 0.9999998807907104 29.99960136413574 L 8 29.99960136413574 M 9 30.99960136413574 L -1.358032193365943e-07 30.99960136413574 L -1.358032193365943e-07 6.820678777330613e-07 L 19.99979972839355 6.820678777330613e-07 L 19.99979972839355 8.000101089477539 L 9 8.000101089477539 L 9 12.99960041046143 L 18 12.99960041046143 L 18 20.99970054626465 L 9 20.99970054626465 L 9 30.99960136413574 Z" stroke="none" fill="#e64b37"/>
    </g>
  </g>
</svg>
