<svg xmlns="http://www.w3.org/2000/svg" viewBox="0 0 60 49.69"><defs><style>.cls-1{fill:#aaa;}</style></defs><g id="Layer_2" data-name="Layer 2"><g id="TempIcon"><polygon points="19.67 23.98 27.91 23.44 37.75 24.16 51 32.91 28.89 49.69 6 32.91 19.67 23.98"/><polygon points="13.67 14.98 21.91 14.44 31.75 15.15 45 23.91 22.89 40.69 0 23.91 13.67 14.98"/><polygon points="19.67 5.98 27.91 5.44 37.75 6.16 51 14.91 28.89 31.69 6 14.91 19.67 5.98"/><polygon points="28.67 14.98 36.91 14.44 46.75 15.15 60 23.91 37.89 40.69 15 23.91 28.67 14.98"/><polygon points="19.47 8.44 14.44 0 28.71 3 43.31 0.5 39.06 8.44 19.47 8.44"/><polygon class="cls-1" points="12.14 21.84 32.53 7.33 39.74 15.46 18.63 31.76 12.14 21.84"/><polygon class="cls-1" points="46.13 22.27 26.08 7.64 18.33 15.12 39.89 31.76 46.13 22.27"/><polygon class="cls-1" points="26.08 29.44 20.12 30.35 29.2 23.09 33.52 26.48 38.81 30.93 31.6 29.44 26.08 29.44"/><polygon class="cls-1" points="24.42 36.92 28.75 36.09 33.11 36.92 31.07 41.83 27 42.52 24.42 36.92"/><polygon class="cls-1" points="22.73 37.41 19.29 30.55 26.08 28.94 28.28 29.85 28.84 31.76 28.59 35.37 22.73 37.41"/><polygon class="cls-1" points="29.09 35.38 28.77 32.11 29.34 29.88 31.6 28.94 38.81 30.93 34.59 37.41 29.09 35.38"/><g id="Face"><polygon points="29.34 29.88 31.6 28.94 26.08 28.94 28.28 29.85 28.84 31.76 29.34 29.88"/><polygon points="25.17 24.05 25.96 24.52 22.53 19.69 16.39 20.03 18.39 20.44 21.47 23.46 24.05 23.23 24 23.42 24 27.86 25.17 24.05"/><polygon points="31.07 24.52 34.59 19.69 40.76 20.03 38.78 20.44 35.71 23.46 32.83 23.23 32.62 23.38 32.69 26.48 31.77 24.02 31.87 23.93 31.07 24.52"/><polygon points="29.09 35.38 28.84 32.3 28.59 35.37 24.17 36.92 28.75 36.09 33.11 36.92 29.09 35.38"/><polygon points="28.95 15.4 28.71 13.75 28.33 15.52 26.55 17.05 28.71 16.07 30.87 17.05 28.95 15.4"/></g></g></g></svg>