<svg xmlns="http://www.w3.org/2000/svg" viewBox="0 0 72.12 72.12"><defs><style>.cls-1{opacity:0.31;}</style></defs><g id="Layer_2" data-name="Layer 2"><g id="Icon_v2_Symbol_1"><g id="Bars" class="cls-1"><rect x="-3.54" y="11.73" width="32.53" height="2" transform="translate(-5.27 12.73) rotate(-45)"/><rect x="-1.41" y="7.49" width="19.8" height="2" transform="translate(-3.51 8.49) rotate(-45)"/><rect y="3.24" width="8.49" height="2" transform="translate(-1.76 4.24) rotate(-45)"/><rect x="-5.66" y="15.97" width="45.25" height="2" transform="translate(-7.03 16.97) rotate(-45)"/><rect x="-7.07" y="20.21" width="56.57" height="2" transform="translate(-8.79 21.21) rotate(-45)"/><rect x="-9.54" y="24.46" width="70" height="2" transform="translate(-10.54 25.46) rotate(-45)"/><rect x="-10.61" y="28.7" width="80.61" height="2" transform="translate(-12.3 29.7) rotate(-45)"/><rect x="-12.73" y="32.94" width="93.34" height="2" transform="translate(-14.06 33.94) rotate(-45)"/><rect x="-8.49" y="37.18" width="93.34" height="2" transform="translate(-15.82 38.18) rotate(-45)"/><rect x="2.12" y="41.43" width="80.61" height="2" transform="translate(-17.57 42.43) rotate(-45)"/><rect x="11.67" y="45.67" width="70" height="2" transform="translate(-19.33 46.67) rotate(-45)"/><rect x="22.63" y="49.91" width="56.57" height="2" transform="translate(-21.09 50.91) rotate(-45)"/><rect x="32.53" y="54.15" width="45.25" height="2" transform="translate(-22.85 55.15) rotate(-45)"/><rect x="43.13" y="58.4" width="32.53" height="2" transform="translate(-24.6 59.4) rotate(-45)"/><rect x="53.74" y="62.64" width="19.8" height="2" transform="translate(-26.36 63.64) rotate(-45)"/><rect x="63.64" y="66.88" width="8.49" height="2" transform="translate(-28.12 67.88) rotate(-45)"/></g><path id="Att" d="M54.94,43.94a9,9,0,1,0,9,9A9,9,0,0,0,54.94,43.94Zm0,16a7,7,0,1,1,7-7A7,7,0,0,1,54.94,59.94Z"/><polygon id="Def" points="63.15 11.15 61.73 9.73 54.94 16.53 48.15 9.73 46.73 11.15 53.53 17.94 46.73 24.73 48.15 26.15 54.94 19.36 61.73 26.15 63.15 24.73 56.35 17.94 63.15 11.15"/><polygon id="Def-2" data-name="Def" points="27.15 46.15 25.73 44.73 18.94 51.53 12.15 44.73 10.73 46.15 17.53 52.94 10.73 59.73 12.15 61.15 18.94 54.35 25.73 61.15 27.15 59.73 20.36 52.94 27.15 46.15"/><polygon id="Pass" points="27.22 18.44 20.69 11.91 19.27 10.5 11.1 18.68 12.51 20.09 19.27 13.32 25.8 19.86 27.22 18.44"/></g></g></svg>